STARTFONT 2.1
FONT -barbaross-creeper-Bold-R-Normal--13-101-100-100-C-70-ISO8859-1
SIZE 10 100 100
FONTBOUNDINGBOX 7 13 0 -3
STARTPROPERTIES 24
FONTNAME_REGISTRY ""
FOUNDRY "barbaross"
FAMILY_NAME "creeper"
WEIGHT_NAME "Bold"
SLANT "R"
SETWIDTH_NAME "Normal"
ADD_STYLE_NAME ""
PIXEL_SIZE 13
POINT_SIZE 101
RESOLUTION_X 100
RESOLUTION_Y 100
SPACING "C"
AVERAGE_WIDTH 70
CHARSET_REGISTRY "ISO8859"
CHARSET_ENCODING "1"
COPYRIGHT "GPLv2"
CAP_HEIGHT 8
X_HEIGHT 6
WEIGHT 10
QUAD_WIDTH 7
_GBDFED_INFO "Edited with gbdfed 1.6."
DEFAULT_CHAR 0
FONT_DESCENT 3
FONT_ASCENT 10
ENDPROPERTIES
CHARS 223
STARTCHAR U+0000
ENCODING 0
SWIDTH 504 0
DWIDTH 7 0
BBX 7 13 0 -3
BITMAP
00
00
00
7E
66
66
66
66
66
66
7E
00
00
ENDCHAR
STARTCHAR U+0001
ENCODING 1
SWIDTH 504 0
DWIDTH 7 0
BBX 7 13 0 -3
BITMAP
00
00
00
7E
66
66
66
66
66
66
7E
00
00
ENDCHAR
STARTCHAR U+0002
ENCODING 2
SWIDTH 504 0
DWIDTH 7 0
BBX 7 13 0 -3
BITMAP
7E
FE
7E
FE
7E
FE
7E
FE
7E
FE
7E
FE
7E
ENDCHAR
STARTCHAR U+0003
ENCODING 3
SWIDTH 504 0
DWIDTH 7 0
BBX 7 13 0 -3
BITMAP
00
00
00
7E
66
66
66
66
66
66
7E
00
00
ENDCHAR
STARTCHAR U+0004
ENCODING 4
SWIDTH 504 0
DWIDTH 7 0
BBX 7 13 0 -3
BITMAP
00
00
00
7E
66
66
66
66
66
66
7E
00
00
ENDCHAR
STARTCHAR U+0005
ENCODING 5
SWIDTH 504 0
DWIDTH 7 0
BBX 7 13 0 -3
BITMAP
00
00
00
7E
66
66
66
66
66
66
7E
00
00
ENDCHAR
STARTCHAR U+0006
ENCODING 6
SWIDTH 504 0
DWIDTH 7 0
BBX 7 13 0 -3
BITMAP
00
00
00
7E
66
66
66
66
66
66
7E
00
00
ENDCHAR
STARTCHAR U+0007
ENCODING 7
SWIDTH 504 0
DWIDTH 7 0
BBX 7 13 0 -3
BITMAP
00
00
00
7E
66
66
66
66
66
66
7E
00
00
ENDCHAR
STARTCHAR U+0008
ENCODING 8
SWIDTH 504 0
DWIDTH 7 0
BBX 7 13 0 -3
BITMAP
00
00
00
7E
66
66
66
66
66
66
7E
00
00
ENDCHAR
STARTCHAR U+0009
ENCODING 9
SWIDTH 504 0
DWIDTH 7 0
BBX 7 13 0 -3
BITMAP
00
00
00
7E
66
66
66
66
66
66
7E
00
00
ENDCHAR
STARTCHAR U+000a
ENCODING 10
SWIDTH 504 0
DWIDTH 7 0
BBX 7 13 0 -3
BITMAP
00
00
00
7E
66
66
66
66
66
66
7E
00
00
ENDCHAR
STARTCHAR U+000b
ENCODING 11
SWIDTH 504 0
DWIDTH 7 0
BBX 7 13 0 -3
BITMAP
18
18
18
18
18
18
18
F8
00
00
00
00
00
ENDCHAR
STARTCHAR U+000c
ENCODING 12
SWIDTH 504 0
DWIDTH 7 0
BBX 7 13 0 -3
BITMAP
00
00
00
00
00
00
00
F8
18
18
18
18
18
ENDCHAR
STARTCHAR U+000d
ENCODING 13
SWIDTH 504 0
DWIDTH 7 0
BBX 7 13 0 -3
BITMAP
00
00
00
00
00
00
00
1E
18
18
18
18
18
ENDCHAR
STARTCHAR U+000e
ENCODING 14
SWIDTH 504 0
DWIDTH 7 0
BBX 7 13 0 -3
BITMAP
18
18
18
18
18
18
18
1E
00
00
00
00
00
ENDCHAR
STARTCHAR U+000f
ENCODING 15
SWIDTH 504 0
DWIDTH 7 0
BBX 7 13 0 -3
BITMAP
18
18
18
18
18
18
18
FE
18
18
18
18
18
ENDCHAR
STARTCHAR U+0010
ENCODING 16
SWIDTH 504 0
DWIDTH 7 0
BBX 7 13 0 -3
BITMAP
FE
00
00
00
00
00
00
00
00
00
00
00
00
ENDCHAR
STARTCHAR U+0011
ENCODING 17
SWIDTH 504 0
DWIDTH 7 0
BBX 7 13 0 -3
BITMAP
00
00
00
00
FE
00
00
00
00
00
00
00
00
ENDCHAR
STARTCHAR U+0012
ENCODING 18
SWIDTH 504 0
DWIDTH 7 0
BBX 7 13 0 -3
BITMAP
00
00
00
00
00
00
00
FE
00
00
00
00
00
ENDCHAR
STARTCHAR U+0013
ENCODING 19
SWIDTH 504 0
DWIDTH 7 0
BBX 7 13 0 -3
BITMAP
00
00
00
00
00
00
00
00
00
00
FE
00
00
ENDCHAR
STARTCHAR U+0014
ENCODING 20
SWIDTH 504 0
DWIDTH 7 0
BBX 7 13 0 -3
BITMAP
00
00
00
00
00
00
00
00
00
00
00
00
00
ENDCHAR
STARTCHAR U+0015
ENCODING 21
SWIDTH 504 0
DWIDTH 7 0
BBX 7 13 0 -3
BITMAP
18
18
18
18
18
18
18
1E
18
18
18
18
18
ENDCHAR
STARTCHAR U+0016
ENCODING 22
SWIDTH 504 0
DWIDTH 7 0
BBX 7 13 0 -3
BITMAP
18
18
18
18
18
18
18
F8
18
18
18
18
18
ENDCHAR
STARTCHAR U+0017
ENCODING 23
SWIDTH 504 0
DWIDTH 7 0
BBX 7 13 0 -3
BITMAP
18
18
18
18
18
18
18
FE
00
00
00
00
00
ENDCHAR
STARTCHAR U+0018
ENCODING 24
SWIDTH 504 0
DWIDTH 7 0
BBX 7 13 0 -3
BITMAP
00
00
00
00
00
00
00
FE
18
18
18
18
18
ENDCHAR
STARTCHAR U+0019
ENCODING 25
SWIDTH 504 0
DWIDTH 7 0
BBX 7 13 0 -3
BITMAP
18
18
18
18
18
18
18
18
18
18
18
18
18
ENDCHAR
STARTCHAR U+001a
ENCODING 26
SWIDTH 504 0
DWIDTH 7 0
BBX 7 13 0 -3
BITMAP
00
00
00
7E
66
66
66
66
66
66
7E
00
00
ENDCHAR
STARTCHAR U+001b
ENCODING 27
SWIDTH 504 0
DWIDTH 7 0
BBX 7 13 0 -3
BITMAP
00
00
00
7E
66
66
66
66
66
66
7E
00
00
ENDCHAR
STARTCHAR U+001c
ENCODING 28
SWIDTH 504 0
DWIDTH 7 0
BBX 7 13 0 -3
BITMAP
00
00
00
7E
66
66
66
66
66
66
7E
00
00
ENDCHAR
STARTCHAR U+001d
ENCODING 29
SWIDTH 504 0
DWIDTH 7 0
BBX 7 13 0 -3
BITMAP
00
00
00
7E
66
66
66
66
66
66
7E
00
00
ENDCHAR
STARTCHAR U+001e
ENCODING 30
SWIDTH 504 0
DWIDTH 7 0
BBX 7 13 0 -3
BITMAP
00
00
00
7E
66
66
66
66
66
66
7E
00
00
ENDCHAR
STARTCHAR U+001f
ENCODING 31
SWIDTH 504 0
DWIDTH 7 0
BBX 7 13 0 -3
BITMAP
00
00
00
7E
66
66
66
66
66
66
7E
00
00
ENDCHAR
STARTCHAR U+0020
ENCODING 32
SWIDTH 504 0
DWIDTH 7 0
BBX 7 13 0 -3
BITMAP
00
00
00
00
00
00
00
00
00
00
00
00
00
ENDCHAR
STARTCHAR U+0021
ENCODING 33
SWIDTH 504 0
DWIDTH 7 0
BBX 7 13 0 -3
BITMAP
00
00
00
18
18
18
18
18
00
00
18
00
00
ENDCHAR
STARTCHAR U+0022
ENCODING 34
SWIDTH 504 0
DWIDTH 7 0
BBX 7 13 0 -3
BITMAP
00
00
3C
3C
3C
00
00
00
00
00
00
00
00
ENDCHAR
STARTCHAR U+0023
ENCODING 35
SWIDTH 504 0
DWIDTH 7 0
BBX 7 13 0 -3
BITMAP
00
00
00
3C
3C
7E
3C
3C
7E
3C
3C
00
00
ENDCHAR
STARTCHAR U+0024
ENCODING 36
SWIDTH 504 0
DWIDTH 7 0
BBX 7 13 0 -3
BITMAP
00
00
00
18
3C
7E
78
3C
1E
7E
3C
18
00
ENDCHAR
STARTCHAR U+0025
ENCODING 37
SWIDTH 504 0
DWIDTH 7 0
BBX 7 13 0 -3
BITMAP
00
00
6C
FC
78
18
30
3C
7E
6C
00
00
00
ENDCHAR
STARTCHAR U+0026
ENCODING 38
SWIDTH 504 0
DWIDTH 7 0
BBX 7 13 0 -3
BITMAP
00
00
00
30
78
78
30
7E
6C
6C
3E
00
00
ENDCHAR
STARTCHAR U+0027
ENCODING 39
SWIDTH 504 0
DWIDTH 7 0
BBX 7 13 0 -3
BITMAP
00
00
18
18
18
00
00
00
00
00
00
00
00
ENDCHAR
STARTCHAR U+0028
ENCODING 40
SWIDTH 504 0
DWIDTH 7 0
BBX 7 13 0 -3
BITMAP
00
00
06
0C
18
18
18
18
18
18
0C
06
00
ENDCHAR
STARTCHAR U+0029
ENCODING 41
SWIDTH 504 0
DWIDTH 7 0
BBX 7 13 0 -3
BITMAP
00
00
60
30
18
18
18
18
18
18
30
60
00
ENDCHAR
STARTCHAR U+002A
ENCODING 42
SWIDTH 504 0
DWIDTH 7 0
BBX 7 13 0 -3
BITMAP
00
00
00
00
00
3C
18
7E
18
3C
00
00
00
ENDCHAR
STARTCHAR U+002B
ENCODING 43
SWIDTH 504 0
DWIDTH 7 0
BBX 7 13 0 -3
BITMAP
00
00
00
00
00
18
18
7E
18
18
00
00
00
ENDCHAR
STARTCHAR U+002C
ENCODING 44
SWIDTH 504 0
DWIDTH 7 0
BBX 7 13 0 -3
BITMAP
00
00
00
00
00
00
00
00
00
18
18
30
00
ENDCHAR
STARTCHAR U+002D
ENCODING 45
SWIDTH 504 0
DWIDTH 7 0
BBX 7 13 0 -3
BITMAP
00
00
00
00
00
00
00
7E
00
00
00
00
00
ENDCHAR
STARTCHAR U+002E
ENCODING 46
SWIDTH 504 0
DWIDTH 7 0
BBX 7 13 0 -3
BITMAP
00
00
00
00
00
00
00
00
00
18
18
00
00
ENDCHAR
STARTCHAR U+002F
ENCODING 47
SWIDTH 504 0
DWIDTH 7 0
BBX 7 13 0 -3
BITMAP
00
00
00
0C
0C
18
18
30
30
60
60
00
00
ENDCHAR
STARTCHAR U+0030
ENCODING 48
SWIDTH 504 0
DWIDTH 7 0
BBX 7 13 0 -3
BITMAP
00
00
00
3C
66
66
6E
7E
76
66
3C
00
00
ENDCHAR
STARTCHAR U+0031
ENCODING 49
SWIDTH 504 0
DWIDTH 7 0
BBX 7 13 0 -3
BITMAP
00
00
00
18
38
18
18
18
18
18
18
00
00
ENDCHAR
STARTCHAR U+0032
ENCODING 50
SWIDTH 504 0
DWIDTH 7 0
BBX 7 13 0 -3
BITMAP
00
00
00
3C
66
66
0C
18
30
60
7E
00
00
ENDCHAR
STARTCHAR U+0033
ENCODING 51
SWIDTH 504 0
DWIDTH 7 0
BBX 7 13 0 -3
BITMAP
00
00
00
7E
06
0E
1C
06
06
66
3C
00
00
ENDCHAR
STARTCHAR U+0034
ENCODING 52
SWIDTH 504 0
DWIDTH 7 0
BBX 7 13 0 -3
BITMAP
00
00
00
0C
1C
3C
6C
6C
7E
0C
0C
00
00
ENDCHAR
STARTCHAR U+0035
ENCODING 53
SWIDTH 504 0
DWIDTH 7 0
BBX 7 13 0 -3
BITMAP
00
00
00
7E
60
7C
66
06
06
66
3C
00
00
ENDCHAR
STARTCHAR U+0036
ENCODING 54
SWIDTH 504 0
DWIDTH 7 0
BBX 7 13 0 -3
BITMAP
00
00
00
3C
66
60
7C
66
66
66
3C
00
00
ENDCHAR
STARTCHAR U+0037
ENCODING 55
SWIDTH 504 0
DWIDTH 7 0
BBX 7 13 0 -3
BITMAP
00
00
00
7E
06
06
0C
0C
18
18
18
00
00
ENDCHAR
STARTCHAR U+0038
ENCODING 56
SWIDTH 504 0
DWIDTH 7 0
BBX 7 13 0 -3
BITMAP
00
00
00
3C
66
66
3C
66
66
66
3C
00
00
ENDCHAR
STARTCHAR U+0039
ENCODING 57
SWIDTH 504 0
DWIDTH 7 0
BBX 7 13 0 -3
BITMAP
00
00
00
3C
66
66
66
3E
06
66
3C
00
00
ENDCHAR
STARTCHAR U+003A
ENCODING 58
SWIDTH 504 0
DWIDTH 7 0
BBX 7 13 0 -3
BITMAP
00
00
00
00
00
18
18
00
00
18
18
00
00
ENDCHAR
STARTCHAR U+003B
ENCODING 59
SWIDTH 504 0
DWIDTH 7 0
BBX 7 13 0 -3
BITMAP
00
00
00
00
00
18
18
00
00
18
18
30
00
ENDCHAR
STARTCHAR U+003C
ENCODING 60
SWIDTH 504 0
DWIDTH 7 0
BBX 7 13 0 -3
BITMAP
00
00
00
00
06
0C
18
30
18
0C
06
00
00
ENDCHAR
STARTCHAR U+003D
ENCODING 61
SWIDTH 504 0
DWIDTH 7 0
BBX 7 13 0 -3
BITMAP
00
00
00
00
00
00
7E
00
7E
00
00
00
00
ENDCHAR
STARTCHAR U+003E
ENCODING 62
SWIDTH 504 0
DWIDTH 7 0
BBX 7 13 0 -3
BITMAP
00
00
00
00
60
30
18
0C
18
30
60
00
00
ENDCHAR
STARTCHAR U+003F
ENCODING 63
SWIDTH 504 0
DWIDTH 7 0
BBX 7 13 0 -3
BITMAP
00
00
00
7C
06
06
1E
18
18
00
18
00
00
ENDCHAR
STARTCHAR U+0040
ENCODING 64
SWIDTH 504 0
DWIDTH 7 0
BBX 7 13 0 -3
BITMAP
00
00
00
00
7E
66
7E
7E
7E
60
7E
00
00
ENDCHAR
STARTCHAR U+0041
ENCODING 65
SWIDTH 504 0
DWIDTH 7 0
BBX 7 13 0 -3
BITMAP
00
00
00
3C
66
66
66
7E
66
66
66
00
00
ENDCHAR
STARTCHAR U+0042
ENCODING 66
SWIDTH 504 0
DWIDTH 7 0
BBX 7 13 0 -3
BITMAP
00
00
00
78
6C
6C
7C
66
66
66
7C
00
00
ENDCHAR
STARTCHAR U+0043
ENCODING 67
SWIDTH 504 0
DWIDTH 7 0
BBX 7 13 0 -3
BITMAP
00
00
00
3C
66
60
60
60
60
66
3C
00
00
ENDCHAR
STARTCHAR U+0044
ENCODING 68
SWIDTH 504 0
DWIDTH 7 0
BBX 7 13 0 -3
BITMAP
00
00
00
78
6C
66
66
66
66
6C
78
00
00
ENDCHAR
STARTCHAR U+0045
ENCODING 69
SWIDTH 504 0
DWIDTH 7 0
BBX 7 13 0 -3
BITMAP
00
00
00
7E
60
60
78
60
60
60
7E
00
00
ENDCHAR
STARTCHAR U+0046
ENCODING 70
SWIDTH 504 0
DWIDTH 7 0
BBX 7 13 0 -3
BITMAP
00
00
00
7E
60
60
78
60
60
60
60
00
00
ENDCHAR
STARTCHAR U+0047
ENCODING 71
SWIDTH 504 0
DWIDTH 7 0
BBX 7 13 0 -3
BITMAP
00
00
00
3C
66
60
60
7E
66
66
3C
00
00
ENDCHAR
STARTCHAR U+0048
ENCODING 72
SWIDTH 504 0
DWIDTH 7 0
BBX 7 13 0 -3
BITMAP
00
00
00
66
66
66
7E
66
66
66
66
00
00
ENDCHAR
STARTCHAR U+0049
ENCODING 73
SWIDTH 504 0
DWIDTH 7 0
BBX 7 13 0 -3
BITMAP
00
00
00
7E
18
18
18
18
18
18
7E
00
00
ENDCHAR
STARTCHAR U+004A
ENCODING 74
SWIDTH 504 0
DWIDTH 7 0
BBX 7 13 0 -3
BITMAP
00
00
00
3E
06
06
06
06
06
66
3C
00
00
ENDCHAR
STARTCHAR U+004B
ENCODING 75
SWIDTH 504 0
DWIDTH 7 0
BBX 7 13 0 -3
BITMAP
00
00
00
6C
78
70
78
78
6C
6C
6C
00
00
ENDCHAR
STARTCHAR U+004C
ENCODING 76
SWIDTH 504 0
DWIDTH 7 0
BBX 7 13 0 -3
BITMAP
00
00
00
60
60
60
60
60
60
60
7E
00
00
ENDCHAR
STARTCHAR U+004D
ENCODING 77
SWIDTH 504 0
DWIDTH 7 0
BBX 7 13 0 -3
BITMAP
00
00
00
66
7E
7E
7E
66
66
66
66
00
00
ENDCHAR
STARTCHAR U+004E
ENCODING 78
SWIDTH 504 0
DWIDTH 7 0
BBX 7 13 0 -3
BITMAP
00
00
00
66
76
76
7E
6E
6E
66
66
00
00
ENDCHAR
STARTCHAR U+004F
ENCODING 79
SWIDTH 504 0
DWIDTH 7 0
BBX 7 13 0 -3
BITMAP
00
00
00
3C
66
66
66
66
66
66
3C
00
00
ENDCHAR
STARTCHAR U+0050
ENCODING 80
SWIDTH 504 0
DWIDTH 7 0
BBX 7 13 0 -3
BITMAP
00
00
00
7C
66
66
66
7C
60
60
60
00
00
ENDCHAR
STARTCHAR U+0051
ENCODING 81
SWIDTH 504 0
DWIDTH 7 0
BBX 7 13 0 -3
BITMAP
00
00
00
3C
66
66
66
66
66
6E
3E
06
00
ENDCHAR
STARTCHAR U+0052
ENCODING 82
SWIDTH 504 0
DWIDTH 7 0
BBX 7 13 0 -3
BITMAP
00
00
00
7C
66
66
66
7C
78
6C
66
00
00
ENDCHAR
STARTCHAR U+0053
ENCODING 83
SWIDTH 504 0
DWIDTH 7 0
BBX 7 13 0 -3
BITMAP
00
00
00
3C
66
60
3C
06
06
66
3C
00
00
ENDCHAR
STARTCHAR U+0054
ENCODING 84
SWIDTH 504 0
DWIDTH 7 0
BBX 7 13 0 -3
BITMAP
00
00
00
7E
18
18
18
18
18
18
18
00
00
ENDCHAR
STARTCHAR U+0055
ENCODING 85
SWIDTH 504 0
DWIDTH 7 0
BBX 7 13 0 -3
BITMAP
00
00
00
66
66
66
66
66
66
66
3E
00
00
ENDCHAR
STARTCHAR U+0056
ENCODING 86
SWIDTH 504 0
DWIDTH 7 0
BBX 7 13 0 -3
BITMAP
00
00
00
66
66
66
66
66
66
3C
18
00
00
ENDCHAR
STARTCHAR U+0057
ENCODING 87
SWIDTH 504 0
DWIDTH 7 0
BBX 7 13 0 -3
BITMAP
00
00
00
66
66
66
66
7E
7E
7E
66
00
00
ENDCHAR
STARTCHAR U+0058
ENCODING 88
SWIDTH 504 0
DWIDTH 7 0
BBX 7 13 0 -3
BITMAP
00
00
00
66
66
3C
3C
66
66
66
66
00
00
ENDCHAR
STARTCHAR U+0059
ENCODING 89
SWIDTH 504 0
DWIDTH 7 0
BBX 7 13 0 -3
BITMAP
00
00
00
66
66
66
66
3E
06
66
3E
00
00
ENDCHAR
STARTCHAR U+005A
ENCODING 90
SWIDTH 504 0
DWIDTH 7 0
BBX 7 13 0 -3
BITMAP
00
00
00
7E
06
06
0C
18
30
60
7E
00
00
ENDCHAR
STARTCHAR U+005B
ENCODING 91
SWIDTH 504 0
DWIDTH 7 0
BBX 7 13 0 -3
BITMAP
00
00
1E
18
18
18
18
18
18
18
18
1E
00
ENDCHAR
STARTCHAR U+005C
ENCODING 92
SWIDTH 504 0
DWIDTH 7 0
BBX 7 13 0 -3
BITMAP
00
00
00
60
60
30
30
18
18
0C
0C
00
00
ENDCHAR
STARTCHAR U+005D
ENCODING 93
SWIDTH 504 0
DWIDTH 7 0
BBX 7 13 0 -3
BITMAP
00
00
78
18
18
18
18
18
18
18
18
78
00
ENDCHAR
STARTCHAR U+005E
ENCODING 94
SWIDTH 504 0
DWIDTH 7 0
BBX 7 13 0 -3
BITMAP
00
00
18
3C
66
00
00
00
00
00
00
00
00
ENDCHAR
STARTCHAR U+005F
ENCODING 95
SWIDTH 504 0
DWIDTH 7 0
BBX 7 13 0 -3
BITMAP
00
00
00
00
00
00
00
00
00
00
7E
00
00
ENDCHAR
STARTCHAR U+0060
ENCODING 96
SWIDTH 504 0
DWIDTH 7 0
BBX 7 13 0 -3
BITMAP
00
00
30
18
0C
00
00
00
00
00
00
00
00
ENDCHAR
STARTCHAR U+0061
ENCODING 97
SWIDTH 504 0
DWIDTH 7 0
BBX 7 13 0 -3
BITMAP
00
00
00
00
00
3E
66
66
66
66
3E
00
00
ENDCHAR
STARTCHAR U+0062
ENCODING 98
SWIDTH 504 0
DWIDTH 7 0
BBX 7 13 0 -3
BITMAP
00
00
00
60
60
7C
66
66
66
66
7C
00
00
ENDCHAR
STARTCHAR U+0063
ENCODING 99
SWIDTH 504 0
DWIDTH 7 0
BBX 7 13 0 -3
BITMAP
00
00
00
00
00
3C
66
60
60
66
3C
00
00
ENDCHAR
STARTCHAR U+0064
ENCODING 100
SWIDTH 504 0
DWIDTH 7 0
BBX 7 13 0 -3
BITMAP
00
00
00
06
06
3E
66
66
66
66
3E
00
00
ENDCHAR
STARTCHAR U+0065
ENCODING 101
SWIDTH 504 0
DWIDTH 7 0
BBX 7 13 0 -3
BITMAP
00
00
00
00
00
3C
66
7E
60
60
3E
00
00
ENDCHAR
STARTCHAR U+0066
ENCODING 102
SWIDTH 504 0
DWIDTH 7 0
BBX 7 13 0 -3
BITMAP
00
00
00
1C
36
30
7C
30
30
30
30
30
60
ENDCHAR
STARTCHAR U+0067
ENCODING 103
SWIDTH 504 0
DWIDTH 7 0
BBX 7 13 0 -3
BITMAP
00
00
00
00
00
3E
66
66
66
66
3E
06
3C
ENDCHAR
STARTCHAR U+0068
ENCODING 104
SWIDTH 504 0
DWIDTH 7 0
BBX 7 13 0 -3
BITMAP
00
00
00
60
60
7C
66
66
66
66
66
00
00
ENDCHAR
STARTCHAR U+0069
ENCODING 105
SWIDTH 504 0
DWIDTH 7 0
BBX 7 13 0 -3
BITMAP
00
00
00
18
00
38
18
18
18
18
1C
00
00
ENDCHAR
STARTCHAR U+006A
ENCODING 106
SWIDTH 504 0
DWIDTH 7 0
BBX 7 13 0 -3
BITMAP
00
00
04
00
1C
0C
0C
0C
0C
0C
0C
18
00
ENDCHAR
STARTCHAR U+006B
ENCODING 107
SWIDTH 504 0
DWIDTH 7 0
BBX 7 13 0 -3
BITMAP
00
00
00
60
60
6C
78
70
78
6C
66
00
00
ENDCHAR
STARTCHAR U+006C
ENCODING 108
SWIDTH 504 0
DWIDTH 7 0
BBX 7 13 0 -3
BITMAP
00
00
00
18
18
18
18
18
18
18
0C
00
00
ENDCHAR
STARTCHAR U+006D
ENCODING 109
SWIDTH 504 0
DWIDTH 7 0
BBX 7 13 0 -3
BITMAP
00
00
00
00
00
66
7E
7E
66
66
66
00
00
ENDCHAR
STARTCHAR U+006E
ENCODING 110
SWIDTH 504 0
DWIDTH 7 0
BBX 7 13 0 -3
BITMAP
00
00
00
00
00
7C
66
66
66
66
66
00
00
ENDCHAR
STARTCHAR U+006F
ENCODING 111
SWIDTH 504 0
DWIDTH 7 0
BBX 7 13 0 -3
BITMAP
00
00
00
00
00
3C
66
66
66
66
3C
00
00
ENDCHAR
STARTCHAR U+0070
ENCODING 112
SWIDTH 504 0
DWIDTH 7 0
BBX 7 13 0 -3
BITMAP
00
00
00
00
00
7C
66
66
66
66
7C
60
60
ENDCHAR
STARTCHAR U+0071
ENCODING 113
SWIDTH 504 0
DWIDTH 7 0
BBX 7 13 0 -3
BITMAP
00
00
00
00
00
3E
66
66
66
66
3E
06
06
ENDCHAR
STARTCHAR U+0072
ENCODING 114
SWIDTH 504 0
DWIDTH 7 0
BBX 7 13 0 -3
BITMAP
00
00
00
00
00
7C
66
60
60
60
60
00
00
ENDCHAR
STARTCHAR U+0073
ENCODING 115
SWIDTH 504 0
DWIDTH 7 0
BBX 7 13 0 -3
BITMAP
00
00
00
00
00
3E
60
3C
06
06
7C
00
00
ENDCHAR
STARTCHAR U+0074
ENCODING 116
SWIDTH 504 0
DWIDTH 7 0
BBX 7 13 0 -3
BITMAP
00
00
00
30
30
78
30
30
30
30
30
18
00
ENDCHAR
STARTCHAR U+0075
ENCODING 117
SWIDTH 504 0
DWIDTH 7 0
BBX 7 13 0 -3
BITMAP
00
00
00
00
00
66
66
66
66
66
3E
00
00
ENDCHAR
STARTCHAR U+0076
ENCODING 118
SWIDTH 504 0
DWIDTH 7 0
BBX 7 13 0 -3
BITMAP
00
00
00
00
00
66
66
66
66
3C
18
00
00
ENDCHAR
STARTCHAR U+0077
ENCODING 119
SWIDTH 504 0
DWIDTH 7 0
BBX 7 13 0 -3
BITMAP
00
00
00
00
00
66
66
66
7E
7E
66
00
00
ENDCHAR
STARTCHAR U+0078
ENCODING 120
SWIDTH 504 0
DWIDTH 7 0
BBX 7 13 0 -3
BITMAP
00
00
00
00
00
66
66
3C
3C
66
66
00
00
ENDCHAR
STARTCHAR U+0079
ENCODING 121
SWIDTH 504 0
DWIDTH 7 0
BBX 7 13 0 -3
BITMAP
00
00
00
00
00
66
66
66
66
66
3E
66
3C
ENDCHAR
STARTCHAR U+007A
ENCODING 122
SWIDTH 504 0
DWIDTH 7 0
BBX 7 13 0 -3
BITMAP
00
00
00
00
00
7E
0C
18
30
60
7E
00
00
ENDCHAR
STARTCHAR U+007B
ENCODING 123
SWIDTH 504 0
DWIDTH 7 0
BBX 7 13 0 -3
BITMAP
00
00
0E
18
18
18
30
18
18
18
18
0E
00
ENDCHAR
STARTCHAR U+007C
ENCODING 124
SWIDTH 504 0
DWIDTH 7 0
BBX 7 13 0 -3
BITMAP
00
00
00
18
18
18
18
18
18
18
18
00
00
ENDCHAR
STARTCHAR U+007D
ENCODING 125
SWIDTH 504 0
DWIDTH 7 0
BBX 7 13 0 -3
BITMAP
00
00
70
18
18
18
0C
18
18
18
18
70
00
ENDCHAR
STARTCHAR U+007E
ENCODING 126
SWIDTH 504 0
DWIDTH 7 0
BBX 7 13 0 -3
BITMAP
00
00
00
00
30
7E
0C
00
00
00
00
00
00
ENDCHAR
STARTCHAR U+00A0
ENCODING 160
SWIDTH 504 0
DWIDTH 7 0
BBX 7 13 0 -3
BITMAP
00
00
00
00
00
00
00
00
00
00
00
00
00
ENDCHAR
STARTCHAR U+00A1
ENCODING 161
SWIDTH 504 0
DWIDTH 7 0
BBX 7 13 0 -3
BITMAP
00
00
18
00
00
18
18
18
18
18
00
00
00
ENDCHAR
STARTCHAR U+00A2
ENCODING 162
SWIDTH 504 0
DWIDTH 7 0
BBX 7 13 0 -3
BITMAP
00
00
00
00
18
3C
7E
78
78
7E
3C
18
00
ENDCHAR
STARTCHAR U+00A3
ENCODING 163
SWIDTH 504 0
DWIDTH 7 0
BBX 7 13 0 -3
BITMAP
00
00
00
1C
36
30
38
30
30
3E
3E
00
00
ENDCHAR
STARTCHAR U+00A4
ENCODING 164
SWIDTH 504 0
DWIDTH 7 0
BBX 7 13 0 -3
BITMAP
00
00
00
00
66
3C
66
66
66
3C
66
00
00
ENDCHAR
STARTCHAR U+00A5
ENCODING 165
SWIDTH 504 0
DWIDTH 7 0
BBX 7 13 0 -3
BITMAP
00
00
00
6C
6C
6C
FE
6C
FE
38
38
00
00
ENDCHAR
STARTCHAR U+00A6
ENCODING 166
SWIDTH 504 0
DWIDTH 7 0
BBX 7 13 0 -3
BITMAP
00
00
00
18
18
18
00
00
18
18
18
00
00
ENDCHAR
STARTCHAR U+00A7
ENCODING 167
SWIDTH 504 0
DWIDTH 7 0
BBX 7 13 0 -3
BITMAP
00
00
00
3C
66
38
6C
36
1C
66
3C
00
00
ENDCHAR
STARTCHAR U+00A8
ENCODING 168
SWIDTH 504 0
DWIDTH 7 0
BBX 7 13 0 -3
BITMAP
00
3C
3C
00
00
00
00
00
00
00
00
00
00
ENDCHAR
STARTCHAR U+00A9
ENCODING 169
SWIDTH 504 0
DWIDTH 7 0
BBX 7 13 0 -3
BITMAP
00
00
00
3C
66
FE
F2
F2
FE
66
3C
00
00
ENDCHAR
STARTCHAR U+00AA
ENCODING 170
SWIDTH 504 0
DWIDTH 7 0
BBX 7 13 0 -3
BITMAP
00
00
3C
06
3E
66
3E
00
7E
00
00
00
00
ENDCHAR
STARTCHAR U+00AB
ENCODING 171
SWIDTH 504 0
DWIDTH 7 0
BBX 7 13 0 -3
BITMAP
00
00
00
00
00
1E
3C
78
3C
1E
00
00
00
ENDCHAR
STARTCHAR U+00AC
ENCODING 172
SWIDTH 504 0
DWIDTH 7 0
BBX 7 13 0 -3
BITMAP
00
00
00
00
00
7E
06
06
00
00
00
00
00
ENDCHAR
STARTCHAR U+00AD
ENCODING 173
SWIDTH 504 0
DWIDTH 7 0
BBX 7 13 0 -3
BITMAP
00
00
00
00
00
00
00
7E
00
00
00
00
00
ENDCHAR
STARTCHAR U+00AE
ENCODING 174
SWIDTH 504 0
DWIDTH 7 0
BBX 7 13 0 -3
BITMAP
00
00
00
3C
66
FE
F2
F2
F2
66
3C
00
00
ENDCHAR
STARTCHAR U+00AF
ENCODING 175
SWIDTH 504 0
DWIDTH 7 0
BBX 7 13 0 -3
BITMAP
00
00
7C
00
00
00
00
00
00
00
00
00
00
ENDCHAR
STARTCHAR U+00B0
ENCODING 176
SWIDTH 504 0
DWIDTH 7 0
BBX 7 13 0 -3
BITMAP
00
00
00
30
78
30
00
00
00
00
00
00
00
ENDCHAR
STARTCHAR U+00B1
ENCODING 177
SWIDTH 504 0
DWIDTH 7 0
BBX 7 13 0 -3
BITMAP
00
00
00
00
00
18
18
7E
18
18
7E
00
00
ENDCHAR
STARTCHAR U+00B2
ENCODING 178
SWIDTH 504 0
DWIDTH 7 0
BBX 7 13 0 -3
BITMAP
00
00
3C
6C
18
30
7C
00
00
00
00
00
00
ENDCHAR
STARTCHAR U+00B3
ENCODING 179
SWIDTH 504 0
DWIDTH 7 0
BBX 7 13 0 -3
BITMAP
00
00
7C
0C
18
0C
78
00
00
00
00
00
00
ENDCHAR
STARTCHAR U+00B4
ENCODING 180
SWIDTH 504 0
DWIDTH 7 0
BBX 7 13 0 -3
BITMAP
00
0C
18
30
00
00
00
00
00
00
00
00
00
ENDCHAR
STARTCHAR U+00B5
ENCODING 181
SWIDTH 504 0
DWIDTH 7 0
BBX 7 13 0 -3
BITMAP
00
00
00
00
00
66
66
66
66
66
7C
60
C0
ENDCHAR
STARTCHAR U+00B6
ENCODING 182
SWIDTH 504 0
DWIDTH 7 0
BBX 7 13 0 -3
BITMAP
00
00
00
3E
7E
7E
7E
3E
1E
1E
1E
1C
00
ENDCHAR
STARTCHAR U+00B7
ENCODING 183
SWIDTH 504 0
DWIDTH 7 0
BBX 7 13 0 -3
BITMAP
00
00
00
00
00
00
18
18
00
00
00
00
00
ENDCHAR
STARTCHAR U+00B8
ENCODING 184
SWIDTH 504 0
DWIDTH 7 0
BBX 7 13 0 -3
BITMAP
00
00
00
00
00
00
00
00
00
30
18
18
70
ENDCHAR
STARTCHAR U+00B9
ENCODING 185
SWIDTH 504 0
DWIDTH 7 0
BBX 7 13 0 -3
BITMAP
00
00
70
30
30
30
78
00
00
00
00
00
00
ENDCHAR
STARTCHAR U+00BA
ENCODING 186
SWIDTH 504 0
DWIDTH 7 0
BBX 7 13 0 -3
BITMAP
00
00
38
6C
6C
6C
38
00
7C
00
00
00
00
ENDCHAR
STARTCHAR U+00BB
ENCODING 187
SWIDTH 504 0
DWIDTH 7 0
BBX 7 13 0 -3
BITMAP
00
00
00
00
00
78
3C
1E
3C
78
00
00
00
ENDCHAR
STARTCHAR U+00BC
ENCODING 188
SWIDTH 504 0
DWIDTH 7 0
BBX 7 13 0 -3
BITMAP
00
18
18
18
18
00
7E
00
3C
3C
0C
0C
00
ENDCHAR
STARTCHAR U+00BD
ENCODING 189
SWIDTH 504 0
DWIDTH 7 0
BBX 7 13 0 -3
BITMAP
00
18
18
18
00
7E
00
1C
36
0C
18
3E
00
ENDCHAR
STARTCHAR U+00BE
ENCODING 190
SWIDTH 504 0
DWIDTH 7 0
BBX 7 13 0 -3
BITMAP
00
3C
18
0C
3C
00
7E
00
3C
3C
0C
0C
00
ENDCHAR
STARTCHAR U+00BF
ENCODING 191
SWIDTH 504 0
DWIDTH 7 0
BBX 7 13 0 -3
BITMAP
00
00
00
18
00
18
18
18
70
60
3C
00
00
ENDCHAR
STARTCHAR U+00C0
ENCODING 192
SWIDTH 504 0
DWIDTH 7 0
BBX 7 13 0 -3
BITMAP
30
18
00
3C
66
66
66
7E
66
66
66
00
00
ENDCHAR
STARTCHAR U+00C1
ENCODING 193
SWIDTH 504 0
DWIDTH 7 0
BBX 7 13 0 -3
BITMAP
0C
18
00
3C
66
66
66
7E
66
66
66
00
00
ENDCHAR
STARTCHAR U+00C2
ENCODING 194
SWIDTH 504 0
DWIDTH 7 0
BBX 7 13 0 -3
BITMAP
18
3C
00
3C
66
66
66
7E
66
66
66
00
00
ENDCHAR
STARTCHAR U+00C3
ENCODING 195
SWIDTH 504 0
DWIDTH 7 0
BBX 7 13 0 -3
BITMAP
3C
78
00
3C
66
66
66
7E
66
66
66
00
00
ENDCHAR
STARTCHAR U+00C4
ENCODING 196
SWIDTH 504 0
DWIDTH 7 0
BBX 7 13 0 -3
BITMAP
00
3C
00
3C
66
66
66
7E
66
66
66
00
00
ENDCHAR
STARTCHAR U+00C5
ENCODING 197
SWIDTH 504 0
DWIDTH 7 0
BBX 7 13 0 -3
BITMAP
18
3C
18
3C
66
66
66
7E
66
66
66
00
00
ENDCHAR
STARTCHAR U+00C6
ENCODING 198
SWIDTH 504 0
DWIDTH 7 0
BBX 7 13 0 -3
BITMAP
00
00
00
3E
78
78
7C
78
78
78
7E
00
00
ENDCHAR
STARTCHAR U+00C7
ENCODING 199
SWIDTH 504 0
DWIDTH 7 0
BBX 7 13 0 -3
BITMAP
00
00
00
3C
66
60
60
60
60
66
3C
18
38
ENDCHAR
STARTCHAR U+00C8
ENCODING 200
SWIDTH 504 0
DWIDTH 7 0
BBX 7 13 0 -3
BITMAP
30
18
00
7E
60
60
78
60
60
60
7E
00
00
ENDCHAR
STARTCHAR U+00C9
ENCODING 201
SWIDTH 504 0
DWIDTH 7 0
BBX 7 13 0 -3
BITMAP
0C
18
00
7E
60
60
78
60
60
60
7E
00
00
ENDCHAR
STARTCHAR U+00CA
ENCODING 202
SWIDTH 504 0
DWIDTH 7 0
BBX 7 13 0 -3
BITMAP
18
3C
00
7E
60
60
78
60
60
60
7E
00
00
ENDCHAR
STARTCHAR U+00CB
ENCODING 203
SWIDTH 504 0
DWIDTH 7 0
BBX 7 13 0 -3
BITMAP
00
3C
00
7E
60
60
78
60
60
60
7E
00
00
ENDCHAR
STARTCHAR U+00CC
ENCODING 204
SWIDTH 504 0
DWIDTH 7 0
BBX 7 13 0 -3
BITMAP
30
18
00
7E
18
18
18
18
18
18
7E
00
00
ENDCHAR
STARTCHAR U+00CD
ENCODING 205
SWIDTH 504 0
DWIDTH 7 0
BBX 7 13 0 -3
BITMAP
0C
18
00
7E
18
18
18
18
18
18
7E
00
00
ENDCHAR
STARTCHAR U+00CE
ENCODING 206
SWIDTH 504 0
DWIDTH 7 0
BBX 7 13 0 -3
BITMAP
18
3C
00
7E
18
18
18
18
18
18
7E
00
00
ENDCHAR
STARTCHAR U+00CF
ENCODING 207
SWIDTH 504 0
DWIDTH 7 0
BBX 7 13 0 -3
BITMAP
00
3C
00
7E
18
18
18
18
18
18
7E
00
00
ENDCHAR
STARTCHAR U+00D0
ENCODING 208
SWIDTH 504 0
DWIDTH 7 0
BBX 7 13 0 -3
BITMAP
00
00
00
78
6C
66
FE
66
66
6C
78
00
00
ENDCHAR
STARTCHAR U+00D1
ENCODING 209
SWIDTH 504 0
DWIDTH 7 0
BBX 7 13 0 -3
BITMAP
3C
78
00
66
76
76
7E
6E
6E
66
66
00
00
ENDCHAR
STARTCHAR U+00D2
ENCODING 210
SWIDTH 504 0
DWIDTH 7 0
BBX 7 13 0 -3
BITMAP
30
18
00
3C
66
66
66
66
66
66
3C
00
00
ENDCHAR
STARTCHAR U+00D3
ENCODING 211
SWIDTH 504 0
DWIDTH 7 0
BBX 7 13 0 -3
BITMAP
0C
18
00
3C
66
66
66
66
66
66
3C
00
00
ENDCHAR
STARTCHAR U+00D4
ENCODING 212
SWIDTH 504 0
DWIDTH 7 0
BBX 7 13 0 -3
BITMAP
18
3C
00
3C
66
66
66
66
66
66
3C
00
00
ENDCHAR
STARTCHAR U+00D5
ENCODING 213
SWIDTH 504 0
DWIDTH 7 0
BBX 7 13 0 -3
BITMAP
3C
78
00
3C
66
66
66
66
66
66
3C
00
00
ENDCHAR
STARTCHAR U+00D6
ENCODING 214
SWIDTH 504 0
DWIDTH 7 0
BBX 7 13 0 -3
BITMAP
00
3C
00
3C
66
66
66
66
66
66
3C
00
00
ENDCHAR
STARTCHAR U+00D7
ENCODING 215
SWIDTH 504 0
DWIDTH 7 0
BBX 7 13 0 -3
BITMAP
00
00
00
00
00
66
3C
18
3C
66
00
00
00
ENDCHAR
STARTCHAR U+00D8
ENCODING 216
SWIDTH 504 0
DWIDTH 7 0
BBX 7 13 0 -3
BITMAP
00
00
00
3E
66
6E
7E
76
66
E6
FC
00
00
ENDCHAR
STARTCHAR U+00D9
ENCODING 217
SWIDTH 504 0
DWIDTH 7 0
BBX 7 13 0 -3
BITMAP
00
30
18
66
66
66
66
66
66
66
3E
00
00
ENDCHAR
STARTCHAR U+00DA
ENCODING 218
SWIDTH 504 0
DWIDTH 7 0
BBX 7 13 0 -3
BITMAP
00
0C
18
66
66
66
66
66
66
66
3E
00
00
ENDCHAR
STARTCHAR U+00DB
ENCODING 219
SWIDTH 504 0
DWIDTH 7 0
BBX 7 13 0 -3
BITMAP
18
3C
00
66
66
66
66
66
66
66
3E
00
00
ENDCHAR
STARTCHAR U+00DC
ENCODING 220
SWIDTH 504 0
DWIDTH 7 0
BBX 7 13 0 -3
BITMAP
00
3C
00
66
66
66
66
66
66
66
3E
00
00
ENDCHAR
STARTCHAR U+00DD
ENCODING 221
SWIDTH 504 0
DWIDTH 7 0
BBX 7 13 0 -3
BITMAP
00
0C
18
66
66
66
66
3E
06
66
3E
00
00
ENDCHAR
STARTCHAR U+00DE
ENCODING 222
SWIDTH 504 0
DWIDTH 7 0
BBX 7 13 0 -3
BITMAP
00
00
00
60
7C
66
66
66
66
7C
60
00
00
ENDCHAR
STARTCHAR U+00DF
ENCODING 223
SWIDTH 504 0
DWIDTH 7 0
BBX 7 13 0 -3
BITMAP
00
00
00
70
78
78
7C
76
66
66
7C
60
C0
ENDCHAR
STARTCHAR U+00E0
ENCODING 224
SWIDTH 504 0
DWIDTH 7 0
BBX 7 13 0 -3
BITMAP
00
00
30
18
00
3E
66
66
66
66
3E
00
00
ENDCHAR
STARTCHAR U+00E1
ENCODING 225
SWIDTH 504 0
DWIDTH 7 0
BBX 7 13 0 -3
BITMAP
00
00
0C
18
00
3E
66
66
66
66
3E
00
00
ENDCHAR
STARTCHAR U+00E2
ENCODING 226
SWIDTH 504 0
DWIDTH 7 0
BBX 7 13 0 -3
BITMAP
00
00
18
3C
00
3E
66
66
66
66
3E
00
00
ENDCHAR
STARTCHAR U+00E3
ENCODING 227
SWIDTH 504 0
DWIDTH 7 0
BBX 7 13 0 -3
BITMAP
00
00
3C
78
00
3E
66
66
66
66
3E
00
00
ENDCHAR
STARTCHAR U+00E4
ENCODING 228
SWIDTH 504 0
DWIDTH 7 0
BBX 7 13 0 -3
BITMAP
00
00
00
3C
00
3E
66
66
66
66
3E
00
00
ENDCHAR
STARTCHAR U+00E5
ENCODING 229
SWIDTH 504 0
DWIDTH 7 0
BBX 7 13 0 -3
BITMAP
00
18
3C
18
00
3E
66
66
66
66
3E
00
00
ENDCHAR
STARTCHAR U+00E6
ENCODING 230
SWIDTH 504 0
DWIDTH 7 0
BBX 7 13 0 -3
BITMAP
00
00
00
00
00
3E
78
7E
78
78
7E
00
00
ENDCHAR
STARTCHAR U+00E7
ENCODING 231
SWIDTH 504 0
DWIDTH 7 0
BBX 7 13 0 -3
BITMAP
00
00
00
00
00
3C
66
60
60
66
3C
18
38
ENDCHAR
STARTCHAR U+00E8
ENCODING 232
SWIDTH 504 0
DWIDTH 7 0
BBX 7 13 0 -3
BITMAP
00
00
30
18
00
3C
66
7E
60
60
3E
00
00
ENDCHAR
STARTCHAR U+00E9
ENCODING 233
SWIDTH 504 0
DWIDTH 7 0
BBX 7 13 0 -3
BITMAP
00
00
0C
18
00
3C
66
7E
60
60
3E
00
00
ENDCHAR
STARTCHAR U+00EA
ENCODING 234
SWIDTH 504 0
DWIDTH 7 0
BBX 7 13 0 -3
BITMAP
00
00
18
3C
00
3C
66
7E
60
60
3E
00
00
ENDCHAR
STARTCHAR U+00EB
ENCODING 235
SWIDTH 504 0
DWIDTH 7 0
BBX 7 13 0 -3
BITMAP
00
00
00
3C
00
3C
66
7E
60
60
3E
00
00
ENDCHAR
STARTCHAR U+00EC
ENCODING 236
SWIDTH 504 0
DWIDTH 7 0
BBX 7 13 0 -3
BITMAP
00
00
30
18
00
38
18
18
18
18
1C
00
00
ENDCHAR
STARTCHAR U+00ED
ENCODING 237
SWIDTH 504 0
DWIDTH 7 0
BBX 7 13 0 -3
BITMAP
00
00
0C
18
00
38
18
18
18
18
1C
00
00
ENDCHAR
STARTCHAR U+00EE
ENCODING 238
SWIDTH 504 0
DWIDTH 7 0
BBX 7 13 0 -3
BITMAP
00
00
18
3C
00
38
18
18
18
18
1C
00
00
ENDCHAR
STARTCHAR U+00EF
ENCODING 239
SWIDTH 504 0
DWIDTH 7 0
BBX 7 13 0 -3
BITMAP
00
00
00
3C
00
38
18
18
18
18
1C
00
00
ENDCHAR
STARTCHAR U+00F0
ENCODING 240
SWIDTH 504 0
DWIDTH 7 0
BBX 7 13 0 -3
BITMAP
00
78
30
78
00
3C
66
66
66
66
3C
00
00
ENDCHAR
STARTCHAR U+00F1
ENCODING 241
SWIDTH 504 0
DWIDTH 7 0
BBX 7 13 0 -3
BITMAP
00
00
3C
78
00
7C
66
66
66
66
66
00
00
ENDCHAR
STARTCHAR U+00F2
ENCODING 242
SWIDTH 504 0
DWIDTH 7 0
BBX 7 13 0 -3
BITMAP
00
00
30
18
00
3C
66
66
66
66
3C
00
00
ENDCHAR
STARTCHAR U+00F3
ENCODING 243
SWIDTH 504 0
DWIDTH 7 0
BBX 7 13 0 -3
BITMAP
00
00
0C
18
00
3C
66
66
66
66
3C
00
00
ENDCHAR
STARTCHAR U+00F4
ENCODING 244
SWIDTH 504 0
DWIDTH 7 0
BBX 7 13 0 -3
BITMAP
00
00
18
3C
00
3C
66
66
66
66
3C
00
00
ENDCHAR
STARTCHAR U+00F5
ENCODING 245
SWIDTH 504 0
DWIDTH 7 0
BBX 7 13 0 -3
BITMAP
00
00
3C
78
00
3C
66
66
66
66
3C
00
00
ENDCHAR
STARTCHAR U+00F6
ENCODING 246
SWIDTH 504 0
DWIDTH 7 0
BBX 7 13 0 -3
BITMAP
00
00
00
3C
00
3C
66
66
66
66
3C
00
00
ENDCHAR
STARTCHAR U+00F7
ENCODING 247
SWIDTH 504 0
DWIDTH 7 0
BBX 7 13 0 -3
BITMAP
00
00
00
00
18
18
00
7E
00
18
18
00
00
ENDCHAR
STARTCHAR U+00F8
ENCODING 248
SWIDTH 504 0
DWIDTH 7 0
BBX 7 13 0 -3
BITMAP
00
00
00
00
02
3E
6E
7E
76
66
FC
00
00
ENDCHAR
STARTCHAR U+00F9
ENCODING 249
SWIDTH 504 0
DWIDTH 7 0
BBX 7 13 0 -3
BITMAP
00
00
30
18
00
66
66
66
66
66
3E
00
00
ENDCHAR
STARTCHAR U+00FA
ENCODING 250
SWIDTH 504 0
DWIDTH 7 0
BBX 7 13 0 -3
BITMAP
00
00
0C
18
00
66
66
66
66
66
3E
00
00
ENDCHAR
STARTCHAR U+00FB
ENCODING 251
SWIDTH 504 0
DWIDTH 7 0
BBX 7 13 0 -3
BITMAP
00
00
18
3C
00
66
66
66
66
66
3E
00
00
ENDCHAR
STARTCHAR U+00FC
ENCODING 252
SWIDTH 504 0
DWIDTH 7 0
BBX 7 13 0 -3
BITMAP
00
00
00
3C
00
66
66
66
66
66
3E
00
00
ENDCHAR
STARTCHAR U+00FD
ENCODING 253
SWIDTH 504 0
DWIDTH 7 0
BBX 7 13 0 -3
BITMAP
00
00
0C
18
00
66
66
66
66
66
3E
66
3C
ENDCHAR
STARTCHAR U+00FE
ENCODING 254
SWIDTH 504 0
DWIDTH 7 0
BBX 7 13 0 -3
BITMAP
00
00
00
00
60
60
7C
66
66
66
7C
60
60
ENDCHAR
STARTCHAR U+00FF
ENCODING 255
SWIDTH 504 0
DWIDTH 7 0
BBX 7 13 0 -3
BITMAP
00
00
00
3C
00
66
66
66
66
66
3E
66
3C
ENDCHAR
ENDFONT
